<svg width="113" height="106" viewBox="0 0 113 106" fill="none" xmlns="http://www.w3.org/2000/svg">
<path d="M10.2581 76.2641C9.64844 76.2641 9.06529 76.1978 8.50865 76.0653C5.03627 75.1376 3.00851 71.864 2.42536 66.2446C2.31934 65.2373 2.26632 64.1638 2.26632 63.024C2.26632 59.1805 2.86272 54.6081 4.05552 49.3068L4.65193 46.6826L3.65792 45.6489C1.29883 43.1572 0.11928 39.7644 0.11928 35.4703C0.11928 32.9521 0.530134 30.2882 1.35184 27.4785C2.59766 23.1844 4.63867 19.0229 7.47489 14.9939C10.3376 10.9383 13.8232 7.53222 17.9318 4.77553C21.8283 2.31041 25.4199 1.07784 28.7068 1.07784C32.0731 1.07784 34.9623 2.25739 37.3744 4.61649C39.0709 6.28641 40.3962 8.48647 41.3504 11.2167C42.3047 13.9203 42.7818 17.0746 42.7818 20.6795C42.7818 21.4747 42.7553 22.2965 42.7023 23.1447C42.3842 27.9424 41.4697 32.8329 39.9588 37.8161C38.4745 42.7729 36.5792 47.5441 34.2732 52.1297C29.5815 61.3806 24.3597 68.2723 18.6077 72.805C15.639 75.111 12.8557 76.2641 10.2581 76.2641ZM10.3376 73.8387C10.7882 73.8387 11.2786 73.7857 11.8087 73.6797C13.8763 73.2026 16.0366 72.0098 18.2896 70.1013C20.5692 68.1928 22.8355 65.7409 25.0886 62.7457C28.508 58.1335 31.543 52.8454 34.1936 46.8814C36.8443 40.8909 38.713 34.8739 39.7998 28.8304C40.2504 26.0206 40.4757 23.4097 40.4757 20.9976C40.4757 16.9686 39.8926 13.5758 38.7263 10.8191C37.5865 8.03585 35.9696 6.02134 33.8756 4.77553C32.3647 3.84779 30.655 3.38393 28.7465 3.38393C25.8838 3.38393 22.6632 4.49721 19.0848 6.72377C15.745 8.92383 12.8027 11.6938 10.2581 15.0336C7.73996 18.347 5.79171 21.8591 4.41337 25.57C3.06152 29.0954 2.3856 32.3823 2.3856 35.4305C2.3856 38.1077 2.9555 40.4535 4.09528 42.4681C4.57241 43.3958 4.91699 43.8597 5.12905 43.8597C5.3411 43.8597 5.5399 43.4355 5.72545 42.5873C6.86523 38.4788 8.42913 34.1582 10.4171 29.6256C12.4316 25.0929 14.4329 21.1832 16.4209 17.8963C18.4089 14.6095 19.8668 12.9661 20.7945 12.9661H20.874C21.4572 13.0456 21.7487 13.3239 21.7487 13.8011C21.7487 14.2517 21.4704 14.8348 20.9138 15.5505C18.5547 18.4927 16.2088 22.429 13.8763 27.3592C11.5702 32.263 9.63518 37.392 8.07129 42.7464C7.67369 44.0982 7.47489 44.9464 7.47489 45.291C7.47489 45.6356 8.21708 45.9139 9.70145 46.126C10.8677 46.285 12.1401 46.3645 13.5184 46.3645C14.8172 46.3645 16.0498 46.285 17.2161 46.126L17.5739 46.0862C17.998 46.0862 18.3426 46.2055 18.6077 46.4441C18.8728 46.6561 19.0053 46.9079 19.0053 47.1995C19.0053 47.4911 18.8198 47.7561 18.4487 47.9947C18.1041 48.2333 17.4547 48.4056 16.5004 48.5116C15.5727 48.6176 14.5389 48.6706 13.3991 48.6706C11.4111 48.6706 9.62193 48.4983 8.03153 48.1537C7.26284 47.9152 6.83873 47.7959 6.75921 47.7959C6.67969 47.7959 6.50739 48.379 6.24233 49.5453C6.00377 50.7116 5.75195 52.0502 5.48689 53.5611C4.85073 57.3251 4.53265 60.5721 4.53265 63.3023C4.53265 66.6952 5.00977 69.2928 5.96401 71.0953C6.94475 72.9242 8.40262 73.8387 10.3376 73.8387ZM37.454 67.0398C37.2154 67.0398 36.9768 66.9205 36.7383 66.6819C36.7118 66.6554 36.6853 66.6289 36.6588 66.6024C36.6057 66.5494 36.566 66.4964 36.5395 66.4434C36.4865 66.3638 36.46 66.2578 36.46 66.1253C36.46 65.8337 36.5925 65.1843 36.8576 64.177C37.0431 63.4614 37.666 61.2613 38.7263 57.5769C40.6613 50.8177 42.371 45.2247 43.8553 40.7981C48.9446 25.1327 52.417 15.2059 54.2725 11.0179C55.3327 8.63225 56.1014 7.43945 56.5785 7.43945C57.2677 7.43945 57.6123 7.69127 57.6123 8.19489C57.6123 8.75153 57.3075 9.70577 56.6978 11.0576C56.0352 12.5685 55.5845 13.6288 55.346 14.2384C55.1339 14.8216 54.8821 15.5107 54.5905 16.3059C53.9544 17.9494 52.9736 20.7193 51.6483 24.6158C47.9639 35.2715 45.1144 43.9657 43.0999 50.6984C42.6758 51.9442 42.4637 52.6996 42.4637 52.9647C42.4637 53.0177 42.477 53.0442 42.5035 53.0442C42.6095 53.0442 42.8481 52.7394 43.2192 52.1297C46.7181 46.6694 49.5808 43.8862 51.8073 43.7801C53.2122 43.7801 53.9146 44.9332 53.9146 47.2393L53.8749 49.3068H55.346C56.1942 49.3068 56.7641 49.3863 57.0557 49.5453C57.3737 49.6779 57.5328 49.9694 57.5328 50.4201C57.5328 50.8707 57.3472 51.1755 56.9761 51.3345C56.6316 51.4671 55.8761 51.5466 54.7098 51.5731L52.5628 51.6129L51.9266 52.2888C50.8664 53.2165 49.7928 53.6804 48.7061 53.6804C47.7518 53.6804 46.9566 53.3093 46.3205 52.5671L45.9626 52.0502C45.353 52.9249 44.5843 54.2238 43.6565 55.9467C41.2179 60.3998 39.6673 63.4746 39.0046 65.171C38.554 66.4169 38.0371 67.0398 37.454 67.0398ZM48.8651 51.4141C49.1567 51.4141 49.4482 51.3213 49.7398 51.1357L50.1374 50.8177L49.5013 50.5393C49.1302 50.3803 48.8386 50.3008 48.6265 50.3008C48.388 50.3008 48.2157 50.3803 48.1097 50.5393C48.0036 50.6719 47.9506 50.7779 47.9506 50.8574C47.9506 51.0165 48.0434 51.149 48.2289 51.255C48.4145 51.361 48.6265 51.4141 48.8651 51.4141ZM51.1314 48.6309C51.476 48.6309 51.6483 48.326 51.6483 47.7164V47.1995C51.6483 46.5898 51.5555 46.285 51.37 46.285C51.2109 46.285 51.0254 46.338 50.8133 46.4441C50.3362 46.6826 49.9386 46.9477 49.6205 47.2393C49.3025 47.5308 49.1434 47.7694 49.1434 47.9549C49.1434 48.0875 49.2229 48.167 49.382 48.1935C49.5675 48.1935 49.8989 48.273 50.376 48.4321C50.7206 48.5646 50.9724 48.6309 51.1314 48.6309ZM65.0077 53.3225C63.6293 53.3225 62.6883 52.6466 62.1847 51.2948C62.1317 51.2948 61.7208 51.4671 60.9522 51.8117C59.9714 52.2623 59.1232 52.4876 58.4075 52.4876C57.3472 52.4876 56.6316 52.1165 56.2605 51.3743C56.1014 51.0562 56.0219 50.7116 56.0219 50.3405C56.0219 49.7309 56.2207 49.0815 56.6183 48.3923C57.0424 47.6766 57.6918 46.9874 58.5665 46.3248C59.9449 45.291 61.2702 44.7741 62.5426 44.7741C63.8149 44.7741 64.7426 45.2247 65.3258 46.126C65.5378 46.5236 65.6438 46.9742 65.6438 47.4778C65.6438 48.061 65.4715 48.7236 65.127 49.4658C64.9414 49.8899 64.8486 50.2213 64.8486 50.4598C64.8486 50.8044 65.0607 50.9767 65.4848 50.9767C66.0944 50.9767 67.168 50.6586 68.7054 50.0225C69.6596 49.6514 70.3753 49.4658 70.8524 49.4658C71.409 49.4658 71.6874 49.7309 71.6874 50.261V50.3405C71.6874 50.8177 71.303 51.2815 70.5343 51.7321C69.7921 52.1562 68.8909 52.5273 67.8306 52.8454C66.7969 53.1635 65.8559 53.3225 65.0077 53.3225ZM58.3677 50.1815C58.5798 50.1285 58.7786 50.0887 58.9641 50.0622C59.1497 50.0357 59.4148 49.9429 59.7593 49.7839C60.1039 49.6249 60.4618 49.4393 60.8329 49.2273C62.3968 48.273 63.1787 47.6236 63.1787 47.279C63.1787 47.1465 63.0329 47.0802 62.7414 47.0802C61.8931 47.1332 61.0582 47.4513 60.2365 48.0345C59.4943 48.5381 58.9509 49.0947 58.6063 49.7044L58.3677 50.1815ZM71.3693 53.3623C70.6271 53.3623 70.256 52.8189 70.256 51.7321C70.256 50.2743 70.6271 48.4586 71.3693 46.285C71.7404 45.0922 72.1512 44.085 72.6018 43.2633C73.0525 42.4415 73.4501 42.0307 73.7946 42.0307C74.4308 42.0307 74.7489 42.2825 74.7489 42.7861C74.7489 43.3163 74.4971 44.297 73.9934 45.7284C73.5163 47.1332 73.2778 47.9682 73.2778 48.2333C73.2778 48.3128 73.291 48.3525 73.3175 48.3525C73.397 48.3525 73.6091 48.1007 73.9537 47.5971C74.9344 46.0597 75.8754 45.291 76.7766 45.291C77.3068 45.291 77.9032 45.5296 78.5659 46.0067L79.7189 46.8019H80.9912C81.6539 46.8019 82.1045 46.8549 82.3431 46.9609C82.6081 47.067 82.7407 47.2923 82.7407 47.6369C82.7141 48.167 82.5021 48.5513 82.1045 48.7899C81.7069 49.002 81.2298 49.108 80.6731 49.108C79.6394 49.108 78.5659 48.7369 77.4526 47.9947C77.267 47.8357 77.108 47.7561 76.9754 47.7561C76.8164 47.7561 76.6176 47.9019 76.379 48.1935C76.1405 48.4586 75.7694 48.9357 75.2658 49.6249C73.5163 52.1165 72.2175 53.3623 71.3693 53.3623ZM86.7962 49.1477C87.0082 49.1477 87.2601 49.002 87.5516 48.7104C87.8697 48.3923 88.0287 48.1007 88.0287 47.8357C88.0287 47.7296 87.989 47.6236 87.9095 47.5176C87.8299 47.4116 87.7372 47.3585 87.6311 47.3585C87.4456 47.3585 87.2468 47.5176 87.0347 47.8357C86.6902 48.2068 86.5179 48.5513 86.5179 48.8694C86.5179 49.055 86.6106 49.1477 86.7962 49.1477ZM86.7564 54.2768C86.4118 54.2768 86.0805 54.2503 85.7624 54.1973C84.0925 53.9057 83.2575 53.0707 83.2575 51.6924C83.2575 50.9237 83.5226 50.0092 84.0527 48.9489C84.6889 47.6501 85.4046 46.6826 86.1998 46.0465C86.889 45.4633 87.5516 45.1717 88.1878 45.1717C88.7179 45.1717 89.1685 45.4103 89.5396 45.8874C89.9372 46.338 90.136 46.8417 90.136 47.3983C90.136 47.7959 90.0565 48.1935 89.8975 48.5911C89.6324 49.2803 89.2083 49.8634 88.6251 50.3405C88.042 50.8177 87.3793 51.0562 86.6371 51.0562H86.3191C85.7889 51.0562 85.5106 51.1888 85.4841 51.4538C85.4841 51.6129 85.6299 51.7586 85.9215 51.8912C86.213 52.0237 86.5311 52.09 86.8757 52.09C87.6179 52.09 88.4794 51.8912 89.4601 51.4936C90.4409 51.0695 91.3553 50.4996 92.2035 49.7839C92.6542 49.4128 93.065 49.2273 93.4361 49.2273C94.0193 49.2273 94.3506 49.5321 94.4301 50.1417C94.4301 50.4598 94.2578 50.8309 93.9132 51.255C93.065 52.1562 91.9782 52.8852 90.6529 53.4418C89.3276 53.9985 88.0287 54.2768 86.7564 54.2768Z" fill="#C57642"/>
<path d="M62.1374 84.2628C62.0683 84.1938 62.0079 84.0988 61.9561 83.978C61.7144 83.7018 61.8439 83.3133 62.3445 82.8127C63.4149 81.7424 67.2128 79.3946 73.7383 75.7693C76.4832 74.1638 78.1319 73.2229 78.6843 72.9467C79.582 72.4633 80.2466 72.0922 80.6782 71.8332L87.9029 67.9231L91.2952 66.1363C95.3348 63.9957 99.2018 62.0449 102.896 60.284C106.59 58.5232 109.128 57.4011 110.509 56.9177C111.113 56.7623 111.536 56.8055 111.778 57.0472C111.933 57.2025 111.994 57.4356 111.959 57.7463C111.959 58.0571 111.899 58.2729 111.778 58.3937C111.588 58.5836 110.742 58.9979 109.24 59.6367C106.375 60.8796 103.216 62.3815 99.7628 64.1424L97.6394 65.23C95.2916 66.4039 92.2878 67.9576 88.628 69.8911C85.2962 71.6692 82.1887 73.361 79.3058 74.9665C77.3205 76.0541 73.3499 78.3674 67.3941 81.9064C64.8736 83.391 63.3544 84.2024 62.8365 84.3405C62.5085 84.4268 62.2755 84.4009 62.1374 84.2628Z" fill="#C57642"/>
</svg>
